<svg xmlns="http://www.w3.org/2000/svg" width="512" height="512" viewBox="0 0 512 512">
<defs><linearGradient id="g" x1="0" y1="0" x2="1" y2="1"><stop stop-color="#00bcd4"/><stop offset=".53" stop-color="#8f5dff"/><stop offset="1" stop-color="#071b35"/></linearGradient><radialGradient id="r"><stop stop-color="#fff" stop-opacity=".22"/><stop offset="1" stop-color="#fff" stop-opacity="0"/></radialGradient></defs>
<rect width="512" height="512" rx="54" fill="url(#g)"/><circle cx="390" cy="90" r="190" fill="url(#r)"/><circle cx="436.0" cy="210.0" r="5" fill="white" opacity=".16"/><circle cx="383.3" cy="337.3" r="7" fill="white" opacity=".16"/><circle cx="256.0" cy="390.0" r="9" fill="white" opacity=".16"/><circle cx="128.7" cy="337.3" r="5" fill="white" opacity=".16"/><circle cx="76.0" cy="210.0" r="7" fill="white" opacity=".16"/><circle cx="128.7" cy="82.7" r="9" fill="white" opacity=".16"/><circle cx="256.0" cy="30.0" r="5" fill="white" opacity=".16"/><circle cx="383.3" cy="82.7" r="7" fill="white" opacity=".16"/>
<circle cx="256" cy="210" r="132" fill="#030814" opacity=".29" stroke="#fff" stroke-opacity=".18" stroke-width="2"/>
<circle cx="256" cy="210" r="104" fill="#07101d" opacity=".48"/>
<text x="256" y="244" fill="#fff" font-family="Arial,Helvetica,sans-serif" font-size="116" font-weight="900" text-anchor="middle" letter-spacing="-4">SV</text>
<rect x="70" y="239" width="15" height="36" rx="8" fill="white" opacity="0.18"/><rect x="101" y="222" width="15" height="53" rx="8" fill="white" opacity="0.22"/><rect x="132" y="205" width="15" height="70" rx="8" fill="white" opacity="0.27"/><rect x="163" y="188" width="15" height="87" rx="8" fill="white" opacity="0.32"/><rect x="194" y="171" width="15" height="104" rx="8" fill="white" opacity="0.36"/><rect x="225" y="250" width="15" height="25" rx="8" fill="white" opacity="0.18"/><rect x="256" y="233" width="15" height="42" rx="8" fill="white" opacity="0.22"/><rect x="287" y="216" width="15" height="59" rx="8" fill="white" opacity="0.27"/><rect x="318" y="199" width="15" height="76" rx="8" fill="white" opacity="0.32"/><rect x="349" y="182" width="15" height="93" rx="8" fill="white" opacity="0.36"/><rect x="380" y="165" width="15" height="110" rx="8" fill="white" opacity="0.18"/><rect x="411" y="244" width="15" height="31" rx="8" fill="white" opacity="0.22"/><rect x="442" y="227" width="15" height="48" rx="8" fill="white" opacity="0.27"/>
<text x="256" y="430" fill="#fff" font-family="Arial,Helvetica,sans-serif" font-size="31" font-weight="900" text-anchor="middle">SABAHV FM</text>
<text x="256" y="463" fill="#fff" opacity=".68" font-family="Arial,Helvetica,sans-serif" font-size="15" font-weight="700" text-anchor="middle" letter-spacing="3">LIVE RADIO</text>
</svg>