<svg xmlns="http://www.w3.org/2000/svg" width="512" height="512" viewBox="0 0 512 512">
<defs><linearGradient id="g" x1="0" y1="0" x2="1" y2="1"><stop stop-color="#8157ff"/><stop offset=".53" stop-color="#19c9a5"/><stop offset="1" stop-color="#1a103e"/></linearGradient><radialGradient id="r"><stop stop-color="#fff" stop-opacity=".22"/><stop offset="1" stop-color="#fff" stop-opacity="0"/></radialGradient></defs>
<rect width="512" height="512" rx="54" fill="url(#g)"/><circle cx="390" cy="90" r="190" fill="url(#r)"/><circle cx="436.0" cy="210.0" r="5" fill="white" opacity=".16"/><circle cx="383.3" cy="337.3" r="7" fill="white" opacity=".16"/><circle cx="256.0" cy="390.0" r="9" fill="white" opacity=".16"/><circle cx="128.7" cy="337.3" r="5" fill="white" opacity=".16"/><circle cx="76.0" cy="210.0" r="7" fill="white" opacity=".16"/><circle cx="128.7" cy="82.7" r="9" fill="white" opacity=".16"/><circle cx="256.0" cy="30.0" r="5" fill="white" opacity=".16"/><circle cx="383.3" cy="82.7" r="7" fill="white" opacity=".16"/>
<circle cx="256" cy="210" r="132" fill="#030814" opacity=".29" stroke="#fff" stroke-opacity=".18" stroke-width="2"/>
<circle cx="256" cy="210" r="104" fill="#07101d" opacity=".48"/>
<text x="256" y="244" fill="#fff" font-family="Arial,Helvetica,sans-serif" font-size="116" font-weight="900" text-anchor="middle" letter-spacing="-4">TX</text>
<rect x="70" y="178" width="15" height="97" rx="8" fill="white" opacity="0.18"/><rect x="101" y="161" width="15" height="114" rx="8" fill="white" opacity="0.22"/><rect x="132" y="240" width="15" height="35" rx="8" fill="white" opacity="0.27"/><rect x="163" y="223" width="15" height="52" rx="8" fill="white" opacity="0.32"/><rect x="194" y="206" width="15" height="69" rx="8" fill="white" opacity="0.36"/><rect x="225" y="189" width="15" height="86" rx="8" fill="white" opacity="0.18"/><rect x="256" y="172" width="15" height="103" rx="8" fill="white" opacity="0.22"/><rect x="287" y="251" width="15" height="24" rx="8" fill="white" opacity="0.27"/><rect x="318" y="234" width="15" height="41" rx="8" fill="white" opacity="0.32"/><rect x="349" y="217" width="15" height="58" rx="8" fill="white" opacity="0.36"/><rect x="380" y="200" width="15" height="75" rx="8" fill="white" opacity="0.18"/><rect x="411" y="183" width="15" height="92" rx="8" fill="white" opacity="0.22"/><rect x="442" y="166" width="15" height="109" rx="8" fill="white" opacity="0.27"/>
<text x="256" y="430" fill="#fff" font-family="Arial,Helvetica,sans-serif" font-size="31" font-weight="900" text-anchor="middle">TRAXX FM</text>
<text x="256" y="463" fill="#fff" opacity=".68" font-family="Arial,Helvetica,sans-serif" font-size="15" font-weight="700" text-anchor="middle" letter-spacing="3">LIVE RADIO</text>
</svg>